<?xml version="1.0" encoding="utf-8"?>
<!-- Generator: Adobe Illustrator 18.1.1, SVG Export Plug-In . SVG Version: 6.00 Build 0)  -->
<!DOCTYPE svg PUBLIC "-//W3C//DTD SVG 1.1//EN" "http://www.w3.org/Graphics/SVG/1.1/DTD/svg11.dtd">
<svg version="1.1" id="Layer_1" xmlns="http://www.w3.org/2000/svg" xmlns:xlink="http://www.w3.org/1999/xlink" x="0px" y="0px"
	 width="576px" height="576px" viewBox="0 0 576 576" enable-background="new 0 0 576 576" xml:space="preserve">
<path id="Behance" fill="#232221" d="M488.3,177.1H363.7v-30.9h124.5V177.1z M280.8,304c8,12.5,12,27.5,12,45.3
	c0,18.4-4.5,34.7-13.9,49.3c-5.9,9.6-13.1,17.9-21.9,24.3c-9.9,7.5-21.6,12.8-34.9,15.5c-13.3,2.7-28,4.3-43.7,4.3H39.5V133.3h149.3
	c37.6,0.5,64.3,11.5,80,32.8c9.3,13.1,14.1,28.8,14.1,47.2c0,18.9-4.8,34.1-14.4,45.6c-5.3,6.4-13.1,12.3-23.5,17.6
	C261.1,282.4,272.8,291.5,280.8,304z M110.9,255.2h65.3c13.3,0,24.3-2.7,32.8-7.7c8.3-5.1,12.5-14.1,12.5-27.2
	c0-14.4-5.6-24-16.5-28.5c-9.6-3.2-21.6-4.8-36.5-4.8h-57.6V255.2z M227.7,344.8c0-16-6.7-27.2-19.7-33.1
	c-7.2-3.5-17.6-5.1-30.9-5.3h-66.1v82.4h65.3c13.3,0,23.7-1.9,31.2-5.3C221.1,376.8,227.7,364,227.7,344.8z M534.4,294.7
	c1.6,10.1,2.1,24.8,1.9,44H374.9c0.8,22.1,8.5,37.9,23.2,46.7c8.8,5.6,19.5,8.3,32,8.3c13.1,0,24-3.2,32.3-10.1
	c4.5-3.7,8.5-8.8,12-15.2h58.9c-1.6,13.1-8.5,26.4-21.3,40c-19.7,21.6-47.7,32.3-83.2,32.3c-29.6,0-55.5-9.1-78.1-27.2
	c-22.4-18.1-33.9-47.7-33.9-88.8c0-38.4,10.1-67.7,30.4-88.3c20.5-20.5,46.7-30.7,79.2-30.7c19.2,0,36.5,3.5,52,10.4
	s28.3,17.9,38.1,32.8C525.9,261.9,531.7,277.1,534.4,294.7z M476.3,300.3c-1.1-15.5-6.1-26.9-15.5-34.9c-9.1-8-20.5-12-34.4-12
	c-14.9,0-26.4,4.3-34.7,12.8c-8.3,8.5-13.3,19.7-15.5,34.4h100V300.3z"/>
</svg>
