<?xml version="1.0" encoding="utf-8"?>
<!-- Generator: Adobe Illustrator 18.1.0, SVG Export Plug-In . SVG Version: 6.00 Build 0)  -->
<!DOCTYPE svg PUBLIC "-//W3C//DTD SVG 1.1//EN" "http://www.w3.org/Graphics/SVG/1.1/DTD/svg11.dtd">
<svg version="1.1" id="Layer_1" xmlns="http://www.w3.org/2000/svg" xmlns:xlink="http://www.w3.org/1999/xlink" x="0px" y="0px"
	 viewBox="0 0 216 216" enable-background="new 0 0 216 216" xml:space="preserve">
<path id="Behance" fill="#3F776D" d="M183.1,66.4h-46.7V54.8h46.7V66.4z M105.3,114c3,4.7,4.5,10.3,4.5,17c0,6.9-1.7,13-5.2,18.5
	c-2.2,3.6-4.9,6.7-8.2,9.1c-3.7,2.8-8.1,4.8-13.1,5.8c-5,1-10.5,1.6-16.4,1.6H14.8V50h56c14.1,0.2,24.1,4.3,30,12.3
	c3.5,4.9,5.3,10.8,5.3,17.7c0,7.1-1.8,12.8-5.4,17.1c-2,2.4-4.9,4.6-8.8,6.6C97.9,105.9,102.3,109.3,105.3,114z M41.6,95.7h24.5
	c5,0,9.1-1,12.3-2.9c3.1-1.9,4.7-5.3,4.7-10.2c0-5.4-2.1-9-6.2-10.7c-3.6-1.2-8.1-1.8-13.7-1.8H41.6V95.7z M85.4,129.3
	c0-6-2.5-10.2-7.4-12.4c-2.7-1.3-6.6-1.9-11.6-2H41.6v30.9h24.5c5,0,8.9-0.7,11.7-2C82.9,141.3,85.4,136.5,85.4,129.3z M200.4,110.5
	c0.6,3.8,0.8,9.3,0.7,16.5h-60.5c0.3,8.3,3.2,14.2,8.7,17.5c3.3,2.1,7.3,3.1,12,3.1c4.9,0,9-1.2,12.1-3.8c1.7-1.4,3.2-3.3,4.5-5.7
	H200c-0.6,4.9-3.2,9.9-8,15c-7.4,8.1-17.9,12.1-31.2,12.1c-11.1,0-20.8-3.4-29.3-10.2c-8.4-6.8-12.7-17.9-12.7-33.3
	c0-14.4,3.8-25.4,11.4-33.1c7.7-7.7,17.5-11.5,29.7-11.5c7.2,0,13.7,1.3,19.5,3.9c5.8,2.6,10.6,6.7,14.3,12.3
	C197.2,98.2,199.4,103.9,200.4,110.5z M178.6,112.6c-0.4-5.8-2.3-10.1-5.8-13.1c-3.4-3-7.7-4.5-12.9-4.5c-5.6,0-9.9,1.6-13,4.8
	c-3.1,3.2-5,7.4-5.8,12.9H178.6z"/>
</svg>
