<?xml version="1.0" encoding="utf-8"?>
<!-- Generator: Adobe Illustrator 18.1.1, SVG Export Plug-In . SVG Version: 6.00 Build 0)  -->
<!DOCTYPE svg PUBLIC "-//W3C//DTD SVG 1.1//EN" "http://www.w3.org/Graphics/SVG/1.1/DTD/svg11.dtd">
<svg version="1.1" id="Layer_1" xmlns="http://www.w3.org/2000/svg" xmlns:xlink="http://www.w3.org/1999/xlink" x="0px" y="0px"
	 width="504px" height="169.2px" viewBox="0 0 504 169.2" enable-background="new 0 0 504 169.2" xml:space="preserve">
<g>
	<path fill="#222121" d="M56.6,132.5c-6.9,0-12-2.2-15.5-6.6c-3.4-4.1-5.2-10.4-5.2-18.9v-2.1h4.4v2.1c0,4.8,0.5,8.6,1.6,11.3
		c1,2.8,2.4,4.9,3.9,6.3c1.6,1.4,3.3,2.4,5.2,2.8c1.9,0.4,3.7,0.6,5.4,0.6c5.2,0,9.1-1.8,12-5.4c2.8-3.6,4.2-8.6,4.2-15
		c0-3.4-0.6-6.3-1.8-8.7c-1.2-2.3-2.6-4.3-4.3-5.8c-1.7-1.5-3.4-2.7-5.2-3.6c-1.8-0.9-3.3-1.5-4.4-2l-2.4-1
		c-1.4-0.6-3.2-1.4-5.3-2.5c-2.1-1.1-4.1-2.6-6.1-4.6c-2-2-3.7-4.4-5.1-7.3c-1.4-2.9-2.1-6.5-2.1-10.7c0-7.3,1.7-13.2,5-17.9
		c3.8-5.2,9-7.7,15.6-7.7c6.8,0,12,2.2,15.6,6.7c3.4,4.3,5.2,10.6,5.2,18.9v2.3h-4.6v-2.3c0-7.3-1.4-12.7-4.2-16.2
		c-2.6-3.2-6.6-4.9-12-4.9c-5.2,0-9.1,2-11.9,5.9c-2.9,3.9-4.3,9-4.3,15.2c0,3.4,0.6,6.4,1.7,8.7c1.1,2.4,2.6,4.4,4.2,6
		c1.7,1.6,3.4,2.9,5.2,3.9c1.8,1,3.4,1.7,4.9,2.3l2.3,1c1.2,0.5,2.9,1.2,5,2.2c2.1,1,4.2,2.4,6.2,4.3c2,1.9,3.7,4.2,5.2,7.1
		c1.5,2.9,2.2,6.4,2.2,10.6c0,7.2-1.7,13-5.2,17.5C68.5,130,63.3,132.5,56.6,132.5z"/>
	<path fill="#222121" d="M130.1,40.5h-23.2v92h-4.4v-92H79.4v-4.6h50.7V40.5z"/>
	<path fill="#222121" d="M127.8,132.6h-4.6l7.6-33.5v-0.4l14.6-62.6h3.6l22.1,96.6h-4.6l-6.6-29.5h-25.5L127.8,132.6z M147.2,48.2
		l-11.6,50.4h23.4L147.2,48.2z"/>
	<path fill="#222121" d="M196.9,132.6c-2.4,0-4.8-0.3-7.2-1c-2.4-0.7-4.7-2-6.7-3.9c-2-1.9-3.6-4.5-4.9-7.8c-1.2-3.3-1.9-7.6-1.9-13
		V61.6c0-5.3,0.6-9.5,1.9-12.9c1.2-3.3,2.9-5.9,4.9-7.8c2-1.9,4.2-3.1,6.7-3.8s4.8-1,7.2-1c2.3,0,4.7,0.3,7.1,1s4.7,1.9,6.7,3.8
		c2,1.9,3.6,4.5,4.9,7.8c1.2,3.3,1.9,7.6,1.9,12.9v2.3h-4.6v-2.3c0-7.4-1.3-12.7-4-16c-2.8-3.3-6.7-5-11.9-5c-5.3,0-9.3,1.7-12,5
		c-2.7,3.3-4,8.7-4,16V107c0,7.4,1.4,12.8,4.2,16.2c2.6,3.3,6.5,5,11.9,5c5.2,0,9.1-1.7,11.9-5c2.7-3.5,4-8.9,4-16.2v-2.3h4.6v2.3
		c0,5.3-0.6,9.7-1.9,13c-1.2,3.3-2.9,5.9-4.9,7.8c-2,1.9-4.2,3.2-6.7,3.9C201.5,132.3,199.2,132.6,196.9,132.6z"/>
	<path fill="#222121" d="M230.3,40.5v41.5h30.2v4.4h-30.2v41.7h30.2v4.4h-34.7V36.1h34.7v4.4H230.3z"/>
	<path fill="#222121" d="M324.5,36.1l-26.8,48.9v47.7h-4.4V84.9l-26.9-48.9h5.2l23.9,43.6l23.9-43.6H324.5z"/>
</g>
<g>
	<g>
		<path fill="#222121" d="M334.9,96.1v-1.9c0-3.8-0.7-6.6-2-8.3c-1.4-1.7-3.3-2.5-5.9-2.5c-2.6,0-4.6,0.8-6,2.5
			c-1.3,1.7-2,4.5-2,8.3v24.6c0,3.8,0.7,6.6,2.1,8.3c1.3,1.7,3.2,2.5,5.9,2.5c2.6,0,4.6-0.8,5.9-2.5c1.3-1.8,2-4.6,2-8.3v-1.9h3.8
			v1.9c0,3-0.3,5.4-1,7.2c-0.7,1.9-1.6,3.4-2.8,4.5c-1.2,1.1-2.5,1.9-3.9,2.3c-1.4,0.4-2.7,0.6-4,0.6c-1.3,0-2.7-0.2-4.1-0.6
			c-1.4-0.4-2.7-1.2-3.9-2.3c-1.2-1.1-2.1-2.6-2.8-4.5c-0.7-1.9-1-4.3-1-7.2V94.2c0-2.9,0.3-5.3,1-7.2c0.7-1.9,1.6-3.4,2.8-4.5
			c1.2-1.1,2.5-1.8,3.9-2.2c2.7-0.7,5.3-0.8,8.1,0c1.4,0.4,2.7,1.1,3.9,2.2c1.2,1.1,2.1,2.6,2.8,4.5c0.7,1.9,1,4.3,1,7.2v1.9H334.9z
			"/>
	</g>
	<g>
		<path fill="#222121" d="M362.6,83.5c-2-2.5-5-3.8-8.9-3.8c-3.9,0-6.8,1.3-8.9,3.8c-1.9,2.5-2.8,6.1-2.8,10.6v24.6
			c0,3,0.4,5.4,1,7.2c0.7,1.9,1.7,3.4,2.8,4.5c1.2,1.1,2.5,1.9,3.9,2.3c1.4,0.4,2.7,0.6,4,0.6c1.3,0,2.7-0.2,4.1-0.6
			c1.4-0.4,2.7-1.2,3.9-2.3c1.2-1.1,2.1-2.6,2.8-4.5c0.7-1.9,1.1-4.3,1.1-7.2V94.2C365.5,89.5,364.5,86,362.6,83.5z M353.7,83.4
			c2.7,0,4.7,0.8,6,2.5c1.3,1.7,2,4.5,2,8.3v24.6c0,3.9-0.7,6.7-2,8.3c-1.4,1.7-3.3,2.5-6,2.5c-2.7,0-4.6-0.8-5.9-2.5
			c-1.4-1.8-2.1-4.6-2.1-8.3V94.2c0-3.7,0.7-6.5,2.1-8.3C349,84.2,350.9,83.4,353.7,83.4z"/>
	</g>
	<g>
		<polygon fill="#222121" points="417.1,79.7 405.5,133.3 402.4,133.3 392.9,90.3 383.5,133.3 380.4,133.3 368.6,79.7 372.4,79.7 
			382,122.7 391.5,79.7 394.5,79.7 403.9,122.6 413.2,79.7 		"/>
	</g>
	<g>
		<path fill="#222121" d="M428.9,79.7h-3l-8,34.4l-4.3,19.2h3.8l3.6-16h12.7l3.6,16h3.8L428.9,79.7z M432.9,113.6h-11l5.4-23.7
			L432.9,113.6z"/>
	</g>
	<g>
		<polygon fill="#222121" points="468,79.7 468,133.3 464.9,133.3 464.7,132.9 447.9,91.3 447.9,133.3 444.1,133.3 444.1,79.7 
			447.3,79.7 464.2,121.7 464.2,79.7 		"/>
	</g>
</g>
<polygon fill="#51C1B0" points="468,66.7 315.2,66.7 320.1,58.1 468,58.1 "/>
</svg>
