<?xml version="1.0" encoding="utf-8"?>
<!-- Generator: Adobe Illustrator 16.0.0, SVG Export Plug-In . SVG Version: 6.00 Build 0)  -->
<!DOCTYPE svg PUBLIC "-//W3C//DTD SVG 1.1//EN" "http://www.w3.org/Graphics/SVG/1.1/DTD/svg11.dtd">
<svg version="1.1" id="Layer_1" xmlns="http://www.w3.org/2000/svg" xmlns:xlink="http://www.w3.org/1999/xlink" x="0px" y="0px"
	 width="1152px" height="900px" viewBox="80.5 0 1152 900" enable-background="new 80.5 0 1152 900" xml:space="preserve">
<polygon fill="#B9E6DF" points="656.544,7 1171.505,7 914.091,448.732 656.544,892.7 398.999,449.784 141.584,7 "/>
<g>
	<g id="XMLID_2_">
		<polygon fill="#36999F" points="1218.57,32.899 1218.57,70.236 1181.232,131.5 1173.739,222.739 1089.994,339.22 955.504,358.677 
			771.316,358.677 759.483,316.871 826.138,271.381 910.672,213.668 894.238,76.152 916.588,52.225 942.094,74.706 950.112,161.343 
			952.479,186.848 986.923,215.246 1031.755,161.343 1034.777,70.236 1043.718,63.005 1066.067,44.863 1079.608,74.706 
			1075.14,177.777 1089.994,194.342 1113.923,179.354 1145.343,108.756 1173.739,44.863 		"/>
		<polygon fill="#23787C" points="1145.343,61.296 1145.343,108.756 1113.923,179.354 1089.994,194.342 1075.14,177.777 
			1084.078,125.453 1094.464,59.719 1118.392,32.899 		"/>
		<polygon fill="#23787C" points="1043.718,40.261 1043.718,63.005 1034.777,70.236 1031.755,161.343 986.923,215.246 
			952.479,186.848 950.112,161.343 977.983,145.436 989.027,40.261 1018.344,11.865 		"/>
		<polygon fill="#23787C" points="910.672,19.358 916.588,52.225 894.238,76.152 910.672,213.668 826.138,271.381 871.363,203.281 
			871.363,49.333 		"/>
		<polygon fill="#50C0AE" points="771.316,358.677 780.65,391.544 737.267,512.625 731.218,683.009 658.78,757.025 654.31,757.025 
			581.871,683.009 575.823,512.625 532.438,391.544 542.431,356.311 553.868,316.081 557.943,301.882 632.617,240.619 
			680.472,240.619 755.146,301.882 759.483,316.871 		"/>
		<polygon fill="#36999F" points="553.868,316.081 542.431,356.311 357.586,357.231 223.094,337.773 139.35,221.162 
			131.856,130.054 94.519,68.658 94.519,31.321 139.35,43.285 167.747,107.179 167.747,108.756 199.167,179.354 223.094,194.342 
			237.95,177.777 237.819,176.594 237.95,176.33 233.48,73.26 247.021,43.285 269.371,61.428 278.311,68.658 281.334,161.343 
			326.166,215.246 360.61,186.848 362.844,161.606 370.996,73.26 394.003,52.882 415.827,76.152 399.394,213.668 484.058,271.381 
			479.983,265.334 		"/>
		<polygon fill="#36999F" points="479.983,265.334 484.058,271.381 399.394,213.668 415.827,76.152 394.003,52.882 396.501,50.779 
			418.851,74.706 402.417,212.221 		"/>
		<polygon fill="#23787C" points="438.702,203.281 479.983,265.334 402.417,212.221 418.851,74.706 396.501,50.779 394.003,52.882 
			393.478,52.225 399.394,19.358 438.702,49.333 		"/>
		<polygon fill="#23787C" points="362.844,161.606 360.61,186.848 326.166,215.246 281.334,161.343 278.311,68.658 269.371,61.428 
			269.371,40.261 294.744,11.865 324.062,40.261 335.105,145.436 		"/>
		<polygon fill="#36999F" points="237.819,176.594 237.95,177.777 223.094,194.342 199.167,179.354 167.747,108.756 
			167.747,107.179 199.167,177.777 223.094,192.764 		"/>
		<polygon fill="#23787C" points="229.01,125.453 237.819,176.594 223.094,192.764 199.167,177.777 167.747,107.179 167.747,61.296 
			194.698,32.899 218.625,59.719 		"/>
	</g>
</g>
<g opacity="0.2">
	<polygon fill="none" points="636.167,738.488 654.31,757.025 658.78,757.025 676.528,739.014 	"/>
	
		<linearGradient id="SVGID_1_" gradientUnits="userSpaceOnUse" x1="172.5483" y1="139.4209" x2="173.2984" y2="140.1708" gradientTransform="matrix(320 0 0 218 -55079.5 -30151.5)">
		<stop  offset="0" style="stop-color:#FFFFFF"/>
		<stop  offset="1" style="stop-color:#BBDCDE"/>
	</linearGradient>
	<polygon fill="url(#SVGID_1_)" points="199.825,305.433 223.094,337.773 319.592,351.709 229.01,269.41 	"/>
	
		<linearGradient id="SVGID_2_" gradientUnits="userSpaceOnUse" x1="169.3594" y1="138.1499" x2="170.1085" y2="138.8989" gradientTransform="matrix(181 0 0 164 -29729 -22531.5)">
		<stop  offset="0" style="stop-color:#26797D"/>
		<stop  offset="1" style="stop-color:#2B848A"/>
	</linearGradient>
	<polygon fill="url(#SVGID_2_)" points="982.191,255.08 1052.527,162.264 977.457,145.699 950.112,161.343 948.01,139.125 
		916.982,132.289 	"/>
	
		<linearGradient id="SVGID_3_" gradientUnits="userSpaceOnUse" x1="173.2046" y1="126.6226" x2="173.955" y2="127.373" gradientTransform="matrix(676 0 0 68 -116588.5 -7912.5)">
		<stop  offset="0" style="stop-color:#FFFFFF"/>
		<stop  offset="1" style="stop-color:#C4E5E1"/>
	</linearGradient>
	<polygon fill="url(#SVGID_3_)" points="720.437,694.052 705.582,691.949 617.104,719.03 636.167,738.488 676.528,739.014 	"/>
	
		<linearGradient id="SVGID_4_" gradientUnits="userSpaceOnUse" x1="172.4351" y1="140.8594" x2="173.1894" y2="141.6138" gradientTransform="matrix(476 0 0 300 -81488.5 -41668.5)">
		<stop  offset="0" style="stop-color:#A7DAD4"/>
		<stop  offset="1" style="stop-color:#FFFFFF"/>
	</linearGradient>
	<polygon fill="url(#SVGID_4_)" points="720.437,694.052 731.218,683.009 732.533,649.091 705.582,691.949 	"/>
	
		<linearGradient id="SVGID_5_" gradientUnits="userSpaceOnUse" x1="170.4204" y1="141.1924" x2="171.1691" y2="141.941" gradientTransform="matrix(204 0 0 340 -34228.5 -47495.5)">
		<stop  offset="0" style="stop-color:#A7DAD4"/>
		<stop  offset="1" style="stop-color:#88CFC6"/>
	</linearGradient>
	<polygon fill="url(#SVGID_5_)" points="575.955,514.598 581.871,683.009 617.104,719.03 705.582,691.949 	"/>
	
		<linearGradient id="SVGID_6_" gradientUnits="userSpaceOnUse" x1="169.6045" y1="136.627" x2="170.354" y2="137.3765" gradientTransform="matrix(143 0 0 138 -24016 -18599.5)">
		<stop  offset="0" style="stop-color:#35999F"/>
		<stop  offset="1" style="stop-color:#78BABE"/>
	</linearGradient>
	<polygon fill="url(#SVGID_6_)" points="229.01,269.41 319.592,351.709 327.217,352.761 269.502,263.362 	"/>
	
		<linearGradient id="SVGID_7_" gradientUnits="userSpaceOnUse" x1="170.6265" y1="140.6924" x2="171.3762" y2="141.4419" gradientTransform="matrix(204 0 0 311 -34228.5 -43337)">
		<stop  offset="0" style="stop-color:#A7DAD4"/>
		<stop  offset="1" style="stop-color:#4EBFAE"/>
	</linearGradient>
	<polygon fill="url(#SVGID_7_)" points="672.715,458.987 564.386,480.679 575.823,512.625 575.955,514.598 705.582,691.949 	"/>
	
		<linearGradient id="SVGID_8_" gradientUnits="userSpaceOnUse" x1="169.895" y1="140.895" x2="170.6446" y2="141.6446" gradientTransform="matrix(189 0 0 311 -31451 -43337)">
		<stop  offset="0" style="stop-color:#4EBFAE"/>
		<stop  offset="1" style="stop-color:#88CFC6"/>
	</linearGradient>
	<polygon fill="url(#SVGID_8_)" points="705.582,691.949 732.533,649.091 737.267,512.625 745.549,489.487 672.715,458.987 	"/>
	
		<linearGradient id="SVGID_9_" gradientUnits="userSpaceOnUse" x1="163.6416" y1="139.501" x2="164.3909" y2="140.2502" gradientTransform="matrix(87 0 0 204 -13326 -28311.5)">
		<stop  offset="0" style="stop-color:#2D888D"/>
		<stop  offset="1" style="stop-color:#35999F"/>
	</linearGradient>
	<polygon fill="url(#SVGID_9_)" points="982.191,255.08 916.982,132.289 944.723,285.055 	"/>
	
		<linearGradient id="SVGID_10_" gradientUnits="userSpaceOnUse" x1="167.7476" y1="135.3101" x2="168.4971" y2="136.0594" gradientTransform="matrix(98 0 0 110 -16319.5 -14855.5)">
		<stop  offset="0" style="stop-color:#488D91"/>
		<stop  offset="1" style="stop-color:#439196"/>
	</linearGradient>
	<polygon fill="url(#SVGID_10_)" points="174.32,119.537 185.625,72.997 167.747,64.32 167.747,107.179 143.425,52.356 
		112.135,37.106 	"/>
	
		<linearGradient id="SVGID_11_" gradientUnits="userSpaceOnUse" x1="171.0845" y1="131.3599" x2="171.8348" y2="132.1102" gradientTransform="matrix(204 0 0 75 -34816.5 -9825)">
		<stop  offset="0" style="stop-color:#2D888D"/>
		<stop  offset="1" style="stop-color:#6DA4A7"/>
	</linearGradient>
	<polygon fill="url(#SVGID_11_)" points="143.425,52.356 139.35,43.285 114.765,36.712 112.135,37.106 	"/>
	
		<linearGradient id="SVGID_12_" gradientUnits="userSpaceOnUse" x1="171.1709" y1="131.2754" x2="171.9203" y2="132.025" gradientTransform="matrix(204 0 0 75 -34816.5 -9825)">
		<stop  offset="0" style="stop-color:#2D888D"/>
		<stop  offset="1" style="stop-color:#6DA4A7"/>
	</linearGradient>
	<polygon fill="url(#SVGID_12_)" points="213.103,53.54 194.698,32.899 167.747,61.296 167.747,64.32 185.625,72.997 	"/>
	
		<linearGradient id="SVGID_13_" gradientUnits="userSpaceOnUse" x1="170.7612" y1="128.2261" x2="171.5108" y2="128.9756" gradientTransform="matrix(189 0 0 62 -32116 -7871.5)">
		<stop  offset="0" style="stop-color:#7EB0B4"/>
		<stop  offset="1" style="stop-color:#609DA0"/>
	</linearGradient>
	<polygon fill="url(#SVGID_13_)" points="234.269,89.299 235.453,118.222 315.912,116.513 	"/>
	
		<linearGradient id="SVGID_14_" gradientUnits="userSpaceOnUse" x1="170.6768" y1="128.3105" x2="171.4265" y2="129.0603" gradientTransform="matrix(189 0 0 62 -32116 -7871.5)">
		<stop  offset="0" style="stop-color:#7EB0B4"/>
		<stop  offset="1" style="stop-color:#609DA0"/>
	</linearGradient>
	<polygon fill="url(#SVGID_14_)" points="174.32,119.537 227.959,118.354 222.7,85.355 185.625,72.997 	"/>
	
		<linearGradient id="SVGID_15_" gradientUnits="userSpaceOnUse" x1="171.0288" y1="136.7549" x2="171.7781" y2="137.5041" gradientTransform="matrix(189 0 0 136 -32116 -18506.5)">
		<stop  offset="0" style="stop-color:#2D888D"/>
		<stop  offset="1" style="stop-color:#2F8D93"/>
	</linearGradient>
	<polygon fill="url(#SVGID_15_)" points="315.912,116.513 235.453,118.222 237.556,165.551 309.996,218.4 	"/>
	
		<linearGradient id="SVGID_16_" gradientUnits="userSpaceOnUse" x1="170.9082" y1="136.8721" x2="171.6587" y2="137.6225" gradientTransform="matrix(189 0 0 136 -32116 -18506.5)">
		<stop  offset="0" style="stop-color:#2D888D"/>
		<stop  offset="1" style="stop-color:#2F8D93"/>
	</linearGradient>
	<polygon fill="url(#SVGID_16_)" points="235.716,164.236 229.01,125.453 227.959,118.354 174.32,119.537 	"/>
	
		<linearGradient id="SVGID_17_" gradientUnits="userSpaceOnUse" x1="170.3789" y1="137.1504" x2="171.1243" y2="137.8956" gradientTransform="matrix(174 0 0 133 -29483.5 -18206)">
		<stop  offset="0" style="stop-color:#2D888D"/>
		<stop  offset="1" style="stop-color:#72AFB3"/>
	</linearGradient>
	<polygon fill="url(#SVGID_17_)" points="222.7,85.355 218.625,59.719 213.103,53.54 185.625,72.997 	"/>
	
		<linearGradient id="SVGID_18_" gradientUnits="userSpaceOnUse" x1="170.5405" y1="136.9878" x2="171.29" y2="137.7372" gradientTransform="matrix(174 0 0 133 -29483.5 -18206)">
		<stop  offset="0" style="stop-color:#2D888D"/>
		<stop  offset="1" style="stop-color:#72AFB3"/>
	</linearGradient>
	<polygon fill="url(#SVGID_18_)" points="274.236,34.872 269.371,40.261 269.371,61.428 247.021,43.285 233.48,73.26 
		234.269,89.299 315.912,116.513 	"/>
	
		<linearGradient id="SVGID_19_" gradientUnits="userSpaceOnUse" x1="164.4966" y1="136.8682" x2="165.2455" y2="137.6173" gradientTransform="matrix(71 0 0 133 -11404 -18206)">
		<stop  offset="0" style="stop-color:#90BABD"/>
		<stop  offset="1" style="stop-color:#609C9F"/>
	</linearGradient>
	<polygon fill="url(#SVGID_19_)" points="318.014,34.477 308.023,24.748 286.856,20.804 274.236,34.872 315.912,116.513 	"/>
	
		<linearGradient id="SVGID_20_" gradientUnits="userSpaceOnUse" x1="170.5635" y1="138.6704" x2="171.3138" y2="139.4207" gradientTransform="matrix(181 0 0 173 -30720 -23849)">
		<stop  offset="0" style="stop-color:#2D888D"/>
		<stop  offset="1" style="stop-color:#35999F"/>
	</linearGradient>
	<polygon fill="url(#SVGID_20_)" points="187.861,249.164 309.996,218.4 237.556,165.551 237.95,176.33 237.819,176.594 
		235.716,164.236 174.32,119.537 	"/>
	
		<linearGradient id="SVGID_21_" gradientUnits="userSpaceOnUse" x1="168.0889" y1="104.7822" x2="168.8383" y2="105.5317" gradientTransform="matrix(109 0 0 27 -18138 -2579)">
		<stop  offset="0" style="stop-color:#35999F"/>
		<stop  offset="1" style="stop-color:#35999F"/>
	</linearGradient>
	<polygon fill="url(#SVGID_21_)" points="229.01,269.41 269.502,263.362 187.861,249.164 	"/>
	
		<linearGradient id="SVGID_22_" gradientUnits="userSpaceOnUse" x1="171.0029" y1="139.8623" x2="171.7542" y2="140.6135" gradientTransform="matrix(177 0 0 245 -30126 -34080)">
		<stop  offset="0" style="stop-color:#FFFFFF"/>
		<stop  offset="1" style="stop-color:#78BABE"/>
	</linearGradient>
	<polygon fill="url(#SVGID_22_)" points="187.861,249.164 176.161,272.565 199.825,305.433 229.01,269.41 	"/>
	
		<linearGradient id="SVGID_23_" gradientUnits="userSpaceOnUse" x1="170.2969" y1="126.7222" x2="171.0466" y2="127.4717" gradientTransform="matrix(163 0 0 60 -27561 -7388.5)">
		<stop  offset="0" style="stop-color:#35999F"/>
		<stop  offset="1" style="stop-color:#35999F"/>
	</linearGradient>
	<polygon fill="url(#SVGID_23_)" points="187.861,249.164 269.502,263.362 309.996,218.4 	"/>
	
		<linearGradient id="SVGID_24_" gradientUnits="userSpaceOnUse" x1="166.2427" y1="137.064" x2="166.993" y2="137.8142" gradientTransform="matrix(96 0 0 152 -15435.5 -20481.5)">
		<stop  offset="0" style="stop-color:#A7DAD4"/>
		<stop  offset="1" style="stop-color:#88CFC6"/>
	</linearGradient>
	<polygon fill="url(#SVGID_24_)" points="536.777,376.425 532.438,391.544 558.864,465.43 585.025,391.544 	"/>
	
		<linearGradient id="SVGID_25_" gradientUnits="userSpaceOnUse" x1="168.9028" y1="128.1646" x2="169.6535" y2="128.9154" gradientTransform="matrix(129 0 0 65 -21519 -8116)">
		<stop  offset="0" style="stop-color:#35999F"/>
		<stop  offset="1" style="stop-color:#35999F"/>
	</linearGradient>
	<polygon fill="url(#SVGID_25_)" points="269.502,263.362 366.131,214.719 309.996,218.4 	"/>
	
		<linearGradient id="SVGID_26_" gradientUnits="userSpaceOnUse" x1="169.0293" y1="139.1406" x2="169.7791" y2="139.8903" gradientTransform="matrix(129 0 0 203 -21519 -28057)">
		<stop  offset="0" style="stop-color:#35999F"/>
		<stop  offset="1" style="stop-color:#78BABE"/>
	</linearGradient>
	<polygon fill="url(#SVGID_26_)" points="269.502,263.362 327.217,352.761 338.655,354.469 366.131,214.719 	"/>
	
		<linearGradient id="SVGID_27_" gradientUnits="userSpaceOnUse" x1="164.5254" y1="137.1021" x2="165.2745" y2="137.8512" gradientTransform="matrix(75 0 0 136 -12042 -18506.5)">
		<stop  offset="0" style="stop-color:#2D888D"/>
		<stop  offset="1" style="stop-color:#2B8287"/>
	</linearGradient>
	<polygon fill="url(#SVGID_27_)" points="309.996,218.4 366.131,214.719 315.912,116.513 	"/>
	
		<linearGradient id="SVGID_28_" gradientUnits="userSpaceOnUse" x1="170.7109" y1="136.4497" x2="171.4587" y2="137.1976" gradientTransform="matrix(248 0 0 134 -41463.5 -17992.5)">
		<stop  offset="0" style="stop-color:#99CBCE"/>
		<stop  offset="1" style="stop-color:#35999F"/>
	</linearGradient>
	<polygon fill="url(#SVGID_28_)" points="900.681,358.677 955.504,358.677 1063.438,343.164 944.723,285.055 	"/>
	
		<linearGradient id="SVGID_29_" gradientUnits="userSpaceOnUse" x1="168.0054" y1="142.5093" x2="168.7555" y2="143.2594" gradientTransform="matrix(150 0 0 555 -24114.5 -78980)">
		<stop  offset="0" style="stop-color:#99CBCE"/>
		<stop  offset="1" style="stop-color:#BBDCDE"/>
	</linearGradient>
	<polygon fill="url(#SVGID_29_)" points="1089.994,339.22 1173.739,222.739 1177.685,174.096 1073.561,341.586 	"/>
	
		<linearGradient id="SVGID_30_" gradientUnits="userSpaceOnUse" x1="145.48" y1="128.6748" x2="146.2155" y2="129.4102" gradientTransform="matrix(36 0 0 62 -4036.5 -7942.5)">
		<stop  offset="0" style="stop-color:#99CBCE"/>
		<stop  offset="1" style="stop-color:#43A0A5"/>
	</linearGradient>
	<polygon fill="url(#SVGID_30_)" points="1218.57,53.014 1218.57,49.596 1209.237,66.292 	"/>
	
		<linearGradient id="SVGID_31_" gradientUnits="userSpaceOnUse" x1="161.7461" y1="139.0786" x2="162.4956" y2="139.8282" gradientTransform="matrix(77 0 0 184 -11408 -25565.5)">
		<stop  offset="0" style="stop-color:#2D888D"/>
		<stop  offset="1" style="stop-color:#359298"/>
	</linearGradient>
	<polygon fill="url(#SVGID_31_)" points="1088.286,99.027 1084.078,125.453 1081.056,143.201 1104.324,127.688 	"/>
	
		<linearGradient id="SVGID_32_" gradientUnits="userSpaceOnUse" x1="161.606" y1="139.2168" x2="162.3552" y2="139.9662" gradientTransform="matrix(77 0 0 184 -11408 -25565.5)">
		<stop  offset="0" style="stop-color:#2D888D"/>
		<stop  offset="1" style="stop-color:#359298"/>
	</linearGradient>
	<polygon fill="url(#SVGID_32_)" points="1076.454,146.356 1079.214,82.857 1060.546,49.333 1048.056,59.324 1052.527,162.264 	"/>
	
		<linearGradient id="SVGID_33_" gradientUnits="userSpaceOnUse" x1="169.9126" y1="137.3301" x2="170.6619" y2="138.0792" gradientTransform="matrix(217 0 0 138 -35838 -18918.5)">
		<stop  offset="0" style="stop-color:#6BA2A6"/>
		<stop  offset="1" style="stop-color:#65AEB2"/>
	</linearGradient>
	<polygon fill="url(#SVGID_33_)" points="1145.343,103.76 1145.343,61.296 1131.013,46.177 1111.161,41.05 1094.464,59.719 
		1088.286,99.027 1104.324,127.688 	"/>
	
		<linearGradient id="SVGID_34_" gradientUnits="userSpaceOnUse" x1="169.8911" y1="137.3501" x2="170.6429" y2="138.1019" gradientTransform="matrix(217 0 0 138 -35838 -18918.5)">
		<stop  offset="0" style="stop-color:#6BA2A6"/>
		<stop  offset="1" style="stop-color:#65AEB2"/>
	</linearGradient>
	<polygon fill="url(#SVGID_34_)" points="1079.608,74.706 1066.067,44.863 1060.546,49.333 1079.214,82.857 	"/>
	
		<linearGradient id="SVGID_35_" gradientUnits="userSpaceOnUse" x1="170.0615" y1="137.1777" x2="170.8136" y2="137.9298" gradientTransform="matrix(217 0 0 138 -35838 -18918.5)">
		<stop  offset="0" style="stop-color:#6BA2A6"/>
		<stop  offset="1" style="stop-color:#65AEB2"/>
	</linearGradient>
	<polygon fill="url(#SVGID_35_)" points="1168.743,55.906 1148.366,101.92 1209.237,66.292 	"/>
	
		<linearGradient id="SVGID_36_" gradientUnits="userSpaceOnUse" x1="167.4258" y1="137.1416" x2="168.1745" y2="137.8902" gradientTransform="matrix(140 0 0 139 -22324.5 -19007)">
		<stop  offset="0" style="stop-color:#2D888D"/>
		<stop  offset="1" style="stop-color:#349096"/>
	</linearGradient>
	<polygon fill="url(#SVGID_36_)" points="1178.078,169.363 1181.232,131.5 1199.113,102.051 1209.237,66.292 1148.366,101.92 
		1145.343,108.756 1145.343,103.76 1104.324,127.688 	"/>
	
		<linearGradient id="SVGID_37_" gradientUnits="userSpaceOnUse" x1="164.041" y1="136.3369" x2="164.791" y2="137.0871" gradientTransform="matrix(88 0 0 134 -13551.5 -17992.5)">
		<stop  offset="0" style="stop-color:#99CBCE"/>
		<stop  offset="1" style="stop-color:#35999F"/>
	</linearGradient>
	<polygon fill="url(#SVGID_37_)" points="878.726,293.337 882.933,358.677 900.681,358.677 944.723,285.055 	"/>
	
		<linearGradient id="SVGID_38_" gradientUnits="userSpaceOnUse" x1="163.9014" y1="139.769" x2="164.6499" y2="140.5175" gradientTransform="matrix(88 0 0 215 -13551.5 -29901)">
		<stop  offset="0" style="stop-color:#2D888D"/>
		<stop  offset="1" style="stop-color:#35999F"/>
	</linearGradient>
	<polygon fill="url(#SVGID_38_)" points="916.982,132.289 878.726,293.337 944.723,285.055 	"/>
	
		<linearGradient id="SVGID_39_" gradientUnits="userSpaceOnUse" x1="160.9233" y1="133.6523" x2="161.673" y2="134.4021" gradientTransform="matrix(72 0 0 96 -10527.5 -12711.5)">
		<stop  offset="0" style="stop-color:#2E8C90"/>
		<stop  offset="1" style="stop-color:#3B9CA1"/>
	</linearGradient>
	<polygon fill="url(#SVGID_39_)" points="1106.56,199.731 1104.324,127.688 1081.056,143.201 1075.14,177.777 1076.454,146.356 
		1052.527,162.264 	"/>
	
		<linearGradient id="SVGID_40_" gradientUnits="userSpaceOnUse" x1="167.7217" y1="140.0415" x2="168.4725" y2="140.7922" gradientTransform="matrix(146 0 0 235 -23416.5 -32740)">
		<stop  offset="0" style="stop-color:#35999F"/>
		<stop  offset="1" style="stop-color:#35999F"/>
	</linearGradient>
	<polygon fill="url(#SVGID_40_)" points="1071.72,341.98 1073.561,341.586 1177.685,174.096 1177.946,171.203 1106.56,199.731 	"/>
	
		<linearGradient id="SVGID_41_" gradientUnits="userSpaceOnUse" x1="164.4795" y1="133.8506" x2="165.2278" y2="134.5989" gradientTransform="matrix(101 0 0 96 -15519 -12711.5)">
		<stop  offset="0" style="stop-color:#368C91"/>
		<stop  offset="1" style="stop-color:#2F8D93"/>
	</linearGradient>
	<polygon fill="url(#SVGID_41_)" points="1106.56,199.731 1177.946,171.203 1178.078,169.363 1104.324,127.688 	"/>
	
		<linearGradient id="SVGID_42_" gradientUnits="userSpaceOnUse" x1="165.2896" y1="117.7124" x2="166.0388" y2="118.4615" gradientTransform="matrix(104 0 0 40 -16255.5 -4449.5)">
		<stop  offset="0" style="stop-color:#35999F"/>
		<stop  offset="1" style="stop-color:#35999F"/>
	</linearGradient>
	<polygon fill="url(#SVGID_42_)" points="1022.552,271.645 982.191,255.08 944.723,285.055 	"/>
	
		<linearGradient id="SVGID_43_" gradientUnits="userSpaceOnUse" x1="168.9409" y1="133.6099" x2="169.6888" y2="134.3579" gradientTransform="matrix(168 0 0 100 -27423.5 -13097.5)">
		<stop  offset="0" style="stop-color:#35999F"/>
		<stop  offset="1" style="stop-color:#35999F"/>
	</linearGradient>
	<polygon fill="url(#SVGID_43_)" points="944.723,285.055 1063.438,343.164 1067.908,342.506 1022.552,271.645 	"/>
	
		<linearGradient id="SVGID_44_" gradientUnits="userSpaceOnUse" x1="164.313" y1="137.3198" x2="165.062" y2="138.0689" gradientTransform="matrix(94 0 0 146 -14460.5 -19890.5)">
		<stop  offset="0" style="stop-color:#35999F"/>
		<stop  offset="1" style="stop-color:#2F8F95"/>
	</linearGradient>
	<polygon fill="url(#SVGID_44_)" points="1052.527,162.264 982.191,255.08 1022.552,271.645 	"/>
	
		<linearGradient id="SVGID_45_" gradientUnits="userSpaceOnUse" x1="165.7402" y1="137.4111" x2="166.4894" y2="138.1602" gradientTransform="matrix(112 0 0 146 -17547.5 -19890.5)">
		<stop  offset="0" style="stop-color:#2E8C90"/>
		<stop  offset="1" style="stop-color:#35999F"/>
	</linearGradient>
	<polygon fill="url(#SVGID_45_)" points="1106.56,199.731 1052.527,162.264 1022.552,271.645 	"/>
	
		<linearGradient id="SVGID_46_" gradientUnits="userSpaceOnUse" x1="165.9009" y1="139.0132" x2="166.6497" y2="139.7618" gradientTransform="matrix(112 0 0 196 -17547.5 -27065.5)">
		<stop  offset="0" style="stop-color:#35999F"/>
		<stop  offset="1" style="stop-color:#35999F"/>
	</linearGradient>
	<polygon fill="url(#SVGID_46_)" points="1022.552,271.645 1067.908,342.506 1071.72,341.98 1106.56,199.731 	"/>
	
		<linearGradient id="SVGID_47_" gradientUnits="userSpaceOnUse" x1="158.2046" y1="135.2749" x2="158.9522" y2="136.0225" gradientTransform="matrix(50 0 0 122 -7355.5 -16116.5)">
		<stop  offset="0" style="stop-color:#A7DAD4"/>
		<stop  offset="1" style="stop-color:#4EBFAE"/>
	</linearGradient>
	<polygon fill="url(#SVGID_47_)" points="585.025,391.544 558.864,465.43 562.676,475.947 590.284,456.751 	"/>
	
		<linearGradient id="SVGID_48_" gradientUnits="userSpaceOnUse" x1="169.4131" y1="111.8306" x2="170.1636" y2="112.5812" gradientTransform="matrix(160 0 0 35 -26550.5 -3458)">
		<stop  offset="0" style="stop-color:#A7DAD4"/>
		<stop  offset="1" style="stop-color:#4EBFAE"/>
	</linearGradient>
	<polygon fill="url(#SVGID_48_)" points="590.284,456.751 562.676,475.947 564.386,480.679 672.715,458.987 	"/>
	
		<linearGradient id="SVGID_49_" gradientUnits="userSpaceOnUse" x1="164.4941" y1="131.6514" x2="165.244" y2="132.4013" gradientTransform="matrix(83 0 0 87 -13071 -11059)">
		<stop  offset="0" style="stop-color:#4EBFAE"/>
		<stop  offset="1" style="stop-color:#4EBFAE"/>
	</linearGradient>
	<polygon fill="url(#SVGID_49_)" points="585.025,391.544 590.284,456.751 647.21,409.555 	"/>
	
		<linearGradient id="SVGID_50_" gradientUnits="userSpaceOnUse" x1="166.9111" y1="127.4741" x2="167.6605" y2="128.2236" gradientTransform="matrix(110 0 0 66 -17775.5 -8000.5)">
		<stop  offset="0" style="stop-color:#4EBFAE"/>
		<stop  offset="1" style="stop-color:#4EBFAE"/>
	</linearGradient>
	<polygon fill="url(#SVGID_50_)" points="590.284,456.751 672.715,458.987 647.21,409.555 	"/>
	
		<linearGradient id="SVGID_51_" gradientUnits="userSpaceOnUse" x1="164.5713" y1="128.3779" x2="165.3194" y2="129.126" gradientTransform="matrix(83 0 0 69 -13071 -8503)">
		<stop  offset="0" style="stop-color:#4EBFAE"/>
		<stop  offset="1" style="stop-color:#4EBFAE"/>
	</linearGradient>
	<polygon fill="url(#SVGID_51_)" points="638.927,357.756 585.025,391.544 647.21,409.555 	"/>
	
		<linearGradient id="SVGID_52_" gradientUnits="userSpaceOnUse" x1="167.2275" y1="131.6187" x2="167.9769" y2="132.3679" gradientTransform="matrix(109 0 0 86 -17704 -11000.5)">
		<stop  offset="0" style="stop-color:#A7DAD4"/>
		<stop  offset="1" style="stop-color:#4EBFAE"/>
	</linearGradient>
	<polygon fill="url(#SVGID_52_)" points="594.754,327.125 537.697,356.442 542.431,356.311 536.777,376.425 585.025,391.544 	"/>
	
		<linearGradient id="SVGID_53_" gradientUnits="userSpaceOnUse" x1="162.9165" y1="131.8047" x2="163.6658" y2="132.5539" gradientTransform="matrix(72 0 0 86 -11151.5 -11000.5)">
		<stop  offset="0" style="stop-color:#4EBFAE"/>
		<stop  offset="1" style="stop-color:#4EBFAE"/>
	</linearGradient>
	<polygon fill="url(#SVGID_53_)" points="594.754,327.125 585.025,391.544 638.927,357.756 	"/>
	
		<linearGradient id="SVGID_54_" gradientUnits="userSpaceOnUse" x1="163.5161" y1="117.5933" x2="164.265" y2="118.3422" gradientTransform="matrix(75 0 0 41 -11662 -4498)">
		<stop  offset="0" style="stop-color:#4EBFAE"/>
		<stop  offset="1" style="stop-color:#4EBFAE"/>
	</linearGradient>
	<polygon fill="url(#SVGID_54_)" points="650.892,336.064 594.754,327.125 638.927,357.756 	"/>
	
		<linearGradient id="SVGID_55_" gradientUnits="userSpaceOnUse" x1="171.0991" y1="139.4062" x2="171.8488" y2="140.1559" gradientTransform="matrix(228 0 0 203 -38705.5 -28057)">
		<stop  offset="0" style="stop-color:#99CBCE"/>
		<stop  offset="1" style="stop-color:#35999F"/>
	</linearGradient>
	<polygon fill="url(#SVGID_55_)" points="366.131,214.719 338.655,354.469 357.586,357.231 444.487,356.836 507.065,351.052 	"/>
	
		<linearGradient id="SVGID_56_" gradientUnits="userSpaceOnUse" x1="171.5273" y1="136.0581" x2="172.2844" y2="136.8151" gradientTransform="matrix(228 0 0 136 -38705.5 -18193.5)">
		<stop  offset="0" style="stop-color:#FFFFFF"/>
		<stop  offset="1" style="stop-color:#BBDCDE"/>
	</linearGradient>
	<polygon fill="url(#SVGID_56_)" points="444.487,356.836 500.755,356.574 507.065,351.052 	"/>
	
		<linearGradient id="SVGID_57_" gradientUnits="userSpaceOnUse" x1="170.5312" y1="139.8291" x2="171.2815" y2="140.5794" gradientTransform="matrix(188 0 0 227 -31685.5 -31570)">
		<stop  offset="0" style="stop-color:#33969C"/>
		<stop  offset="1" style="stop-color:#78B9BC"/>
	</linearGradient>
	<polygon fill="url(#SVGID_57_)" points="507.065,351.052 501.412,280.059 479.983,265.334 438.702,203.281 438.702,195.525 
		366.131,214.719 	"/>
	
		<linearGradient id="SVGID_58_" gradientUnits="userSpaceOnUse" x1="170.147" y1="136.0088" x2="170.9204" y2="136.7823" gradientTransform="matrix(163 0 0 136 -27290 -18193.5)">
		<stop  offset="0" style="stop-color:#FFFFFF"/>
		<stop  offset="1" style="stop-color:#BBDCDE"/>
	</linearGradient>
	<polygon fill="url(#SVGID_58_)" points="500.755,356.574 508.906,356.574 507.065,351.052 	"/>
	
		<linearGradient id="SVGID_59_" gradientUnits="userSpaceOnUse" x1="168.4624" y1="140.0088" x2="169.2108" y2="140.7573" gradientTransform="matrix(135 0 0 227 -22267 -31570)">
		<stop  offset="0" style="stop-color:#FFFFFF"/>
		<stop  offset="1" style="stop-color:#80C7C4"/>
	</linearGradient>
	<polygon fill="url(#SVGID_59_)" points="594.754,327.125 570.302,291.759 557.943,301.882 553.868,316.081 501.412,280.059 
		507.065,351.052 	"/>
	
		<linearGradient id="SVGID_60_" gradientUnits="userSpaceOnUse" x1="167.709" y1="124.8076" x2="168.4582" y2="125.557" gradientTransform="matrix(117 0 0 56 -19108 -6665.5)">
		<stop  offset="0" style="stop-color:#99CBCE"/>
		<stop  offset="1" style="stop-color:#3BA6A4"/>
	</linearGradient>
	<polygon fill="url(#SVGID_60_)" points="507.065,351.052 508.906,356.574 537.697,356.442 594.754,327.125 	"/>
	
		<linearGradient id="SVGID_61_" gradientUnits="userSpaceOnUse" x1="170.8809" y1="135.5078" x2="171.6299" y2="136.2569" gradientTransform="matrix(231 0 0 123 -38728 -16392)">
		<stop  offset="0" style="stop-color:#35999F"/>
		<stop  offset="1" style="stop-color:#80C7C4"/>
	</linearGradient>
	<polygon fill="url(#SVGID_61_)" points="822.721,358.677 882.933,358.677 878.726,293.337 778.81,303.591 759.483,316.871 
		756.33,305.959 711.63,310.561 	"/>
	
		<linearGradient id="SVGID_62_" gradientUnits="userSpaceOnUse" x1="171.0044" y1="140.4849" x2="171.7454" y2="141.2259" gradientTransform="matrix(274 0 0 238 -46231.5 -33224.5)">
		<stop  offset="0" style="stop-color:#99CBCE"/>
		<stop  offset="1" style="stop-color:#7ABCB8"/>
	</linearGradient>
	<polygon fill="url(#SVGID_62_)" points="756.33,305.959 755.146,301.882 737.924,287.684 711.63,310.561 	"/>
	
		<linearGradient id="SVGID_63_" gradientUnits="userSpaceOnUse" x1="171.3931" y1="140.0854" x2="172.1421" y2="140.8345" gradientTransform="matrix(274 0 0 238 -46231.5 -33224.5)">
		<stop  offset="0" style="stop-color:#99CBCE"/>
		<stop  offset="1" style="stop-color:#7ABCB8"/>
	</linearGradient>
	<polygon fill="url(#SVGID_63_)" points="916.982,132.289 871.363,171.86 871.363,203.281 826.138,271.381 778.81,303.591 
		878.726,293.337 	"/>
	
		<linearGradient id="SVGID_64_" gradientUnits="userSpaceOnUse" x1="173.4028" y1="139.8413" x2="174.1532" y2="140.5917" gradientTransform="matrix(565 0 0 238 -97302 -33224.5)">
		<stop  offset="0" style="stop-color:#FFFFFF"/>
		<stop  offset="1" style="stop-color:#7ABCB8"/>
	</linearGradient>
	<polygon fill="url(#SVGID_64_)" points="871.363,137.547 871.363,171.86 916.982,132.289 	"/>
	
		<linearGradient id="SVGID_65_" gradientUnits="userSpaceOnUse" x1="172.9683" y1="140.2764" x2="173.7171" y2="141.0251" gradientTransform="matrix(565 0 0 238 -97302 -33224.5)">
		<stop  offset="0" style="stop-color:#FFFFFF"/>
		<stop  offset="1" style="stop-color:#7ABCB8"/>
	</linearGradient>
	<polygon fill="url(#SVGID_65_)" points="737.924,287.684 680.472,240.619 632.617,240.619 616.316,253.896 711.63,310.561 	"/>
	
		<linearGradient id="SVGID_66_" gradientUnits="userSpaceOnUse" x1="171.6846" y1="139.1943" x2="172.4318" y2="139.9415" gradientTransform="matrix(291 0 0 195 -49489 -26946)">
		<stop  offset="0" style="stop-color:#E6F4F2"/>
		<stop  offset="1" style="stop-color:#79CAC0"/>
	</linearGradient>
	<polygon fill="url(#SVGID_66_)" points="711.63,310.561 616.316,253.896 570.302,291.759 594.754,327.125 	"/>
	
		<linearGradient id="SVGID_67_" gradientUnits="userSpaceOnUse" x1="169.2412" y1="112.2607" x2="169.9907" y2="113.0102" gradientTransform="matrix(156 0 0 34 -25796.5 -3508.5)">
		<stop  offset="0" style="stop-color:#4EBFAE"/>
		<stop  offset="1" style="stop-color:#4EBFAE"/>
	</linearGradient>
	<polygon fill="url(#SVGID_67_)" points="711.63,310.561 594.754,327.125 650.892,336.064 	"/>
	
		<linearGradient id="SVGID_68_" gradientUnits="userSpaceOnUse" x1="150.8916" y1="129.418" x2="151.6409" y2="130.1671" gradientTransform="matrix(36 0 0 73 -4797.5 -9081)">
		<stop  offset="0" style="stop-color:#4EBFAE"/>
		<stop  offset="1" style="stop-color:#4EBFAE"/>
	</linearGradient>
	<polygon fill="url(#SVGID_68_)" points="647.21,409.555 665.878,412.448 638.927,357.756 	"/>
	
		<linearGradient id="SVGID_69_" gradientUnits="userSpaceOnUse" x1="151.043" y1="133.6631" x2="151.7916" y2="134.4117" gradientTransform="matrix(36 0 0 102 -4797.5 -13300.5)">
		<stop  offset="0" style="stop-color:#4EBFAE"/>
		<stop  offset="1" style="stop-color:#4EBFAE"/>
	</linearGradient>
	<polygon fill="url(#SVGID_69_)" points="638.927,357.756 665.878,412.448 650.892,336.064 	"/>
	
		<linearGradient id="SVGID_70_" gradientUnits="userSpaceOnUse" x1="149.6758" y1="127.2979" x2="150.4257" y2="128.0478" gradientTransform="matrix(34 0 0 66 -4437.5 -8000.5)">
		<stop  offset="0" style="stop-color:#4EBFAE"/>
		<stop  offset="1" style="stop-color:#4EBFAE"/>
	</linearGradient>
	<polygon fill="url(#SVGID_70_)" points="647.21,409.555 672.715,458.987 665.878,412.448 	"/>
	
		<linearGradient id="SVGID_71_" gradientUnits="userSpaceOnUse" x1="164.0571" y1="136.4087" x2="164.8073" y2="137.159" gradientTransform="matrix(81 0 0 136 -12634 -18247.5)">
		<stop  offset="0" style="stop-color:#4EBFAE"/>
		<stop  offset="1" style="stop-color:#4EBFAE"/>
	</linearGradient>
	<polygon fill="url(#SVGID_71_)" points="665.878,412.448 711.63,310.561 650.892,336.064 	"/>
	
		<linearGradient id="SVGID_72_" gradientUnits="userSpaceOnUse" x1="170.1094" y1="136.5742" x2="170.8581" y2="137.3229" gradientTransform="matrix(198 0 0 141 -33030.5 -18834)">
		<stop  offset="0" style="stop-color:#4EBFAE"/>
		<stop  offset="1" style="stop-color:#88CFC6"/>
	</linearGradient>
	<polygon fill="url(#SVGID_72_)" points="672.715,458.987 745.549,489.487 751.332,473.317 665.878,412.448 	"/>
	
		<linearGradient id="SVGID_73_" gradientUnits="userSpaceOnUse" x1="171.4312" y1="136.5977" x2="172.1808" y2="137.3474" gradientTransform="matrix(292 0 0 136 -49433.5 -18247.5)">
		<stop  offset="0" style="stop-color:#4EBFAE"/>
		<stop  offset="1" style="stop-color:#88CFC6"/>
	</linearGradient>
	<polygon fill="url(#SVGID_73_)" points="665.878,412.448 778.021,398.644 780.65,391.544 771.316,358.677 822.721,358.677 
		711.63,310.561 	"/>
	
		<linearGradient id="SVGID_74_" gradientUnits="userSpaceOnUse" x1="171.5996" y1="138.1514" x2="172.3481" y2="138.8999" gradientTransform="matrix(292 0 0 177 -49433.5 -24072)">
		<stop  offset="0" style="stop-color:#FFFFFF"/>
		<stop  offset="1" style="stop-color:#C4E5E1"/>
	</linearGradient>
	<polygon fill="url(#SVGID_74_)" points="751.332,473.317 778.021,398.644 665.878,412.448 	"/>
	
		<linearGradient id="SVGID_75_" gradientUnits="userSpaceOnUse" x1="167.833" y1="136.3755" x2="168.5815" y2="137.1239" gradientTransform="matrix(114 0 0 120 -18839.5 -16314.5)">
		<stop  offset="0" style="stop-color:#90BABD"/>
		<stop  offset="1" style="stop-color:#ADD4D6"/>
	</linearGradient>
	<polygon fill="url(#SVGID_75_)" points="331.161,106.784 324.062,40.261 318.014,34.477 315.912,116.513 	"/>
	
		<linearGradient id="SVGID_76_" gradientUnits="userSpaceOnUse" x1="168.1475" y1="136.0557" x2="168.8993" y2="136.8075" gradientTransform="matrix(114 0 0 120 -18839.5 -16314.5)">
		<stop  offset="0" style="stop-color:#90BABD"/>
		<stop  offset="1" style="stop-color:#ADD4D6"/>
	</linearGradient>
	<polygon fill="url(#SVGID_76_)" points="389.665,56.826 370.996,73.26 370.207,81.805 401.366,61.822 	"/>
	
		<linearGradient id="SVGID_77_" gradientUnits="userSpaceOnUse" x1="168.1406" y1="139.4355" x2="168.8902" y2="140.1851" gradientTransform="matrix(114 0 0 204 -18839.5 -28405.5)">
		<stop  offset="0" style="stop-color:#81B2B5"/>
		<stop  offset="1" style="stop-color:#6FB6B9"/>
	</linearGradient>
	<polygon fill="url(#SVGID_77_)" points="366.131,214.719 401.366,61.822 370.207,81.805 362.844,161.606 335.105,145.436 
		331.161,106.784 315.912,116.513 	"/>
	
		<linearGradient id="SVGID_78_" gradientUnits="userSpaceOnUse" x1="169.9268" y1="139.6807" x2="170.6765" y2="140.4303" gradientTransform="matrix(170 0 0 204 -28544.5 -28405.5)">
		<stop  offset="0" style="stop-color:#2D888D"/>
		<stop  offset="1" style="stop-color:#72AFB3"/>
	</linearGradient>
	<polygon fill="url(#SVGID_78_)" points="366.131,214.719 438.702,195.525 438.702,110.07 401.366,61.822 	"/>
	
		<linearGradient id="SVGID_79_" gradientUnits="userSpaceOnUse" x1="163.8408" y1="138.6274" x2="164.5921" y2="139.3788" gradientTransform="matrix(96 0 0 172 -14545.5 -23808.5)">
		<stop  offset="0" style="stop-color:#35999F"/>
		<stop  offset="1" style="stop-color:#369A9F"/>
	</linearGradient>
	<polygon fill="url(#SVGID_79_)" points="1199.113,102.051 1218.57,70.236 1218.57,60.902 1209.237,66.292 	"/>
	
		<linearGradient id="SVGID_80_" gradientUnits="userSpaceOnUse" x1="156.0508" y1="125.1709" x2="156.8018" y2="125.922" gradientTransform="matrix(57 0 0 51 -7701 -6342)">
		<stop  offset="0" style="stop-color:#35999F"/>
		<stop  offset="1" style="stop-color:#46A1A6"/>
	</linearGradient>
	<polygon fill="url(#SVGID_80_)" points="1218.57,60.902 1218.57,53.014 1209.237,66.292 	"/>
	
		<linearGradient id="SVGID_81_" gradientUnits="userSpaceOnUse" x1="171.5166" y1="122.2715" x2="172.268" y2="123.0229" gradientTransform="matrix(246 0 0 44 -42187.5 -5362.5)">
		<stop  offset="0" style="stop-color:#99CBCE"/>
		<stop  offset="1" style="stop-color:#FFFFFF"/>
	</linearGradient>
	<polygon fill="url(#SVGID_81_)" points="114.765,36.712 110.821,35.66 112.135,37.106 	"/>
	
		<linearGradient id="SVGID_82_" gradientUnits="userSpaceOnUse" x1="158.7856" y1="128.5386" x2="159.5356" y2="129.2885" gradientTransform="matrix(42 0 0 62 -6589.5 -7963.5)">
		<stop  offset="0" style="stop-color:#99CBCE"/>
		<stop  offset="1" style="stop-color:#35999F"/>
	</linearGradient>
	<polygon fill="url(#SVGID_82_)" points="110.821,35.66 94.519,31.321 94.519,44.994 112.135,37.106 	"/>
	
		<linearGradient id="SVGID_83_" gradientUnits="userSpaceOnUse" x1="169.9233" y1="140.6021" x2="170.6731" y2="141.3518" gradientTransform="matrix(141 0 0 265 -23863 -37235)">
		<stop  offset="0" style="stop-color:#2D888D"/>
		<stop  offset="1" style="stop-color:#35999F"/>
	</linearGradient>
	<polygon fill="url(#SVGID_83_)" points="174.32,119.537 94.519,59.851 94.519,68.658 131.856,130.054 133.17,146.488 
		187.861,249.164 	"/>
	
		<linearGradient id="SVGID_84_" gradientUnits="userSpaceOnUse" x1="169.9316" y1="142.418" x2="170.6805" y2="143.1667" gradientTransform="matrix(141 0 0 510 -23863 -72637.5)">
		<stop  offset="0" style="stop-color:#FFFFFF"/>
		<stop  offset="1" style="stop-color:#78BABE"/>
	</linearGradient>
	<polygon fill="url(#SVGID_84_)" points="133.17,146.488 139.35,221.162 176.161,272.565 187.861,249.164 	"/>
	
		<linearGradient id="SVGID_85_" gradientUnits="userSpaceOnUse" x1="169.1748" y1="135.354" x2="169.924" y2="136.1034" gradientTransform="matrix(123 0 0 110 -20722 -14855.5)">
		<stop  offset="0" style="stop-color:#35999F"/>
		<stop  offset="1" style="stop-color:#2F8D93"/>
	</linearGradient>
	<polygon fill="url(#SVGID_85_)" points="112.135,37.106 94.519,44.994 94.519,59.851 174.32,119.537 	"/>
	
		<linearGradient id="SVGID_86_" gradientUnits="userSpaceOnUse" x1="173.7671" y1="95.1904" x2="174.5208" y2="95.9442" gradientTransform="matrix(1302 0 0 20 -226459.5 -1897.5)">
		<stop  offset="0" style="stop-color:#FFFFFF"/>
		<stop  offset="1" style="stop-color:#FFFFFF"/>
	</linearGradient>
	<polygon fill="url(#SVGID_86_)" points="294.744,11.865 290.8,16.334 299.215,16.203 	"/>
	
		<linearGradient id="SVGID_87_" gradientUnits="userSpaceOnUse" x1="169.9277" y1="133.0278" x2="170.678" y2="133.7779" gradientTransform="matrix(217 0 0 86 -35838 -11434.5)">
		<stop  offset="0" style="stop-color:#90BABD"/>
		<stop  offset="1" style="stop-color:#BBDCDE"/>
	</linearGradient>
	<polygon fill="url(#SVGID_87_)" points="1118.392,32.899 1111.161,41.05 1131.013,46.177 	"/>
	
		<linearGradient id="SVGID_88_" gradientUnits="userSpaceOnUse" x1="169.9604" y1="132.9946" x2="170.7088" y2="133.743" gradientTransform="matrix(217 0 0 86 -35838 -11434.5)">
		<stop  offset="0" style="stop-color:#90BABD"/>
		<stop  offset="1" style="stop-color:#BBDCDE"/>
	</linearGradient>
	<polygon fill="url(#SVGID_88_)" points="1171.242,50.385 1168.743,55.906 1209.237,66.292 	"/>
	
		<linearGradient id="SVGID_89_" gradientUnits="userSpaceOnUse" x1="170.4331" y1="132.9312" x2="171.1791" y2="133.6773" gradientTransform="matrix(239 0 0 86 -39664 -11434.5)">
		<stop  offset="0" style="stop-color:#99CBCE"/>
		<stop  offset="1" style="stop-color:#FFFFFF"/>
	</linearGradient>
	<polygon fill="url(#SVGID_89_)" points="1218.57,49.596 1218.57,32.899 1173.739,44.863 1171.242,50.385 1209.237,66.292 	"/>
	
		<linearGradient id="SVGID_90_" gradientUnits="userSpaceOnUse" x1="173.5566" y1="114.7466" x2="174.3015" y2="115.4913" gradientTransform="matrix(1056 0 0 33 -183286.5 -3776)">
		<stop  offset="0" style="stop-color:#FFFFFF"/>
		<stop  offset="1" style="stop-color:#F1F6F6"/>
	</linearGradient>
	<polygon fill="url(#SVGID_90_)" points="299.215,16.203 290.8,16.334 286.856,20.804 308.023,24.748 	"/>
	
		<linearGradient id="SVGID_91_" gradientUnits="userSpaceOnUse" x1="173.5854" y1="114.7222" x2="174.3257" y2="115.4624" gradientTransform="matrix(1056 0 0 33 -183286.5 -3776)">
		<stop  offset="0" style="stop-color:#FFFFFF"/>
		<stop  offset="1" style="stop-color:#F1F6F6"/>
	</linearGradient>
	<polygon fill="url(#SVGID_91_)" points="399.394,19.358 398.604,23.959 405.046,23.697 	"/>
	
		<linearGradient id="SVGID_92_" gradientUnits="userSpaceOnUse" x1="173.5366" y1="132.3286" x2="174.2872" y2="133.0792" gradientTransform="matrix(985 0 0 80 -170826 -10567.5)">
		<stop  offset="0" style="stop-color:#EAF3F2"/>
		<stop  offset="1" style="stop-color:#BBDCDE"/>
	</linearGradient>
	<polygon fill="url(#SVGID_92_)" points="438.702,58.404 438.702,49.333 405.046,23.697 398.604,23.959 393.478,52.225 
		394.003,52.882 389.665,56.826 401.366,61.822 	"/>
	
		<linearGradient id="SVGID_93_" gradientUnits="userSpaceOnUse" x1="169.2827" y1="137.3208" x2="170.0333" y2="138.0715" gradientTransform="matrix(181 0 0 140 -29729 -19163.5)">
		<stop  offset="0" style="stop-color:#90BABD"/>
		<stop  offset="1" style="stop-color:#B5D2D4"/>
	</linearGradient>
	<polygon fill="url(#SVGID_93_)" points="984.294,85.092 977.983,145.436 977.457,145.699 1052.527,162.264 	"/>
	
		<linearGradient id="SVGID_94_" gradientUnits="userSpaceOnUse" x1="169.1641" y1="137.4409" x2="169.9164" y2="138.1931" gradientTransform="matrix(181 0 0 140 -29729 -19163.5)">
		<stop  offset="0" style="stop-color:#90BABD"/>
		<stop  offset="1" style="stop-color:#B5D2D4"/>
	</linearGradient>
	<polygon fill="url(#SVGID_94_)" points="948.01,139.125 943.145,86.275 916.982,132.289 	"/>
	
		<linearGradient id="SVGID_95_" gradientUnits="userSpaceOnUse" x1="166.9316" y1="138.9609" x2="167.6811" y2="139.7104" gradientTransform="matrix(124 0 0 184 -19725.5 -25565.5)">
		<stop  offset="0" style="stop-color:#26797D"/>
		<stop  offset="1" style="stop-color:#6EA5A9"/>
	</linearGradient>
	<polygon fill="url(#SVGID_95_)" points="1048.056,59.324 1043.718,63.005 1043.718,40.261 1033.727,29.218 988.37,46.44 
		984.294,85.092 1052.527,162.264 	"/>
	
		<linearGradient id="SVGID_96_" gradientUnits="userSpaceOnUse" x1="167.0864" y1="131.1421" x2="167.8321" y2="131.8879" gradientTransform="matrix(129 0 0 74 -20598 -9700.5)">
		<stop  offset="0" style="stop-color:#277A7E"/>
		<stop  offset="1" style="stop-color:#B5D1D3"/>
	</linearGradient>
	<polygon fill="url(#SVGID_96_)" points="1025.182,19.752 989.027,40.524 988.37,46.44 1033.727,29.218 	"/>
	
		<linearGradient id="SVGID_97_" gradientUnits="userSpaceOnUse" x1="173.2822" y1="132.4819" x2="174.0075" y2="133.2074" gradientTransform="matrix(874 0 0 80 -151345.5 -10567.5)">
		<stop  offset="0" style="stop-color:#99CBCE"/>
		<stop  offset="1" style="stop-color:#FFFFFF"/>
	</linearGradient>
	<polygon fill="url(#SVGID_97_)" points="438.702,61.559 438.702,58.404 401.366,61.822 	"/>
	
		<linearGradient id="SVGID_98_" gradientUnits="userSpaceOnUse" x1="173.8174" y1="131.9248" x2="174.5657" y2="132.6731" gradientTransform="matrix(874 0 0 80 -151345.5 -10567.5)">
		<stop  offset="0" style="stop-color:#99CBCE"/>
		<stop  offset="1" style="stop-color:#FFFFFF"/>
	</linearGradient>
	<polygon fill="url(#SVGID_98_)" points="1018.344,11.865 989.027,40.261 989.027,40.524 1025.182,19.752 	"/>
	
		<linearGradient id="SVGID_99_" gradientUnits="userSpaceOnUse" x1="173.6748" y1="132.0684" x2="174.4236" y2="132.817" gradientTransform="matrix(874 0 0 80 -151345.5 -10567.5)">
		<stop  offset="0" style="stop-color:#99CBCE"/>
		<stop  offset="1" style="stop-color:#FFFFFF"/>
	</linearGradient>
	<polygon fill="url(#SVGID_99_)" points="916.588,52.225 910.672,19.358 871.363,49.333 871.363,58.009 922.637,57.615 	"/>
	
		<linearGradient id="SVGID_100_" gradientUnits="userSpaceOnUse" x1="173.77" y1="138.0879" x2="174.52" y2="138.8381" gradientTransform="matrix(745 0 0 165 -128835 -22776)">
		<stop  offset="0" style="stop-color:#99CBCE"/>
		<stop  offset="1" style="stop-color:#FFFFFF"/>
	</linearGradient>
	<polygon fill="url(#SVGID_100_)" points="922.637,57.615 871.363,58.009 871.363,80.753 930.918,64.977 	"/>
	
		<linearGradient id="SVGID_101_" gradientUnits="userSpaceOnUse" x1="173.4102" y1="138.4443" x2="174.1621" y2="139.1962" gradientTransform="matrix(745 0 0 165 -128835 -22776)">
		<stop  offset="0" style="stop-color:#99CBCE"/>
		<stop  offset="1" style="stop-color:#FFFFFF"/>
	</linearGradient>
	<polygon fill="url(#SVGID_101_)" points="438.702,110.07 438.702,61.559 401.366,61.822 	"/>
	
		<linearGradient id="SVGID_102_" gradientUnits="userSpaceOnUse" x1="173.4121" y1="138.1885" x2="174.1621" y2="138.9385" gradientTransform="matrix(622 0 0 165 -107248.5 -22776)">
		<stop  offset="0" style="stop-color:#FFFFFF"/>
		<stop  offset="1" style="stop-color:#B4D0D2"/>
	</linearGradient>
	<polygon fill="url(#SVGID_102_)" points="943.145,86.275 942.094,74.706 930.918,64.977 871.363,80.753 871.363,137.547 
		916.982,132.289 	"/>
</g>
</svg>
