<?xml version="1.0" encoding="utf-8"?>
<!-- Generator: Adobe Illustrator 18.1.0, SVG Export Plug-In . SVG Version: 6.00 Build 0)  -->
<!DOCTYPE svg PUBLIC "-//W3C//DTD SVG 1.1//EN" "http://www.w3.org/Graphics/SVG/1.1/DTD/svg11.dtd">
<svg version="1.1" id="Layer_1" xmlns="http://www.w3.org/2000/svg" xmlns:xlink="http://www.w3.org/1999/xlink" x="0px" y="0px"
	 viewBox="0 0 216 135.9" enable-background="new 0 0 216 135.9" xml:space="preserve">
<rect x="12" y="15.1" fill="none" stroke="#113E39" stroke-width="8" stroke-linejoin="round" stroke-miterlimit="10" width="192" height="111"/>
<rect x="12" y="15.1" fill="#113E39" width="192" height="39"/>
<rect x="35.9" y="22" fill="none" width="146.4" height="25.8"/>
<text transform="matrix(1 0 0 1 35.926 43.4224)" fill="#FFFFFF" font-family="'HelveticaNeue-CondensedBold'" font-size="30">MY NAME IS</text>
<g>
	<g>
		<path fill="#113E39" d="M58.8,71.5c-1-5.7-5.9-9-11.7-7.8c-5.4,1.1-7.7,7.2-4.6,11.7c4.6,6.6,13.6,5.1,19.9,8.5
			c3.4,1.8,6.1,6.1,2.1,9.1c-1.7,1.2-4.1,1.7-6.1,2.1c-2.7,0.6-6,1.3-8.9,1c-1.1,0.2-2-0.1-2.9-0.7c-1.5-1.2-1.4-2.5,0.1-3.9
			c2.8,1.6,5.3-2.7,2.5-4.3c-6.1-3.4-10.9,3.8-8,9.1c4.2,7.9,17.4,5.1,24,2c7.6-3.6,8.2-12.4,1.4-17.4c-3.8-2.8-8.5-3.3-13-4.4
			c-1.5-0.4-11.9-4-6.2-7.5c2.7-1.7,5.9,1.7,6.3,4C54.5,76,59.4,74.6,58.8,71.5L58.8,71.5z"/>
	</g>
</g>
<g>
	<g>
		<path fill="#113E39" d="M63.5,68.6c4,10.3,8.9,20.2,14.6,29.6c1.7,2.7,6,0.2,4.3-2.5c-5.5-9.1-10.2-18.5-14.1-28.4
			C67.1,64.3,62.3,65.6,63.5,68.6L63.5,68.6z"/>
	</g>
</g>
<g>
	<g>
		<path fill="#113E39" d="M63.3,82.5c4.3-0.5,8.4-1.4,12.5-3c3-1.2,1.7-6-1.3-4.8c-3.6,1.4-7.3,2.4-11.1,2.9
			C60.1,77.8,60.1,82.8,63.3,82.5L63.3,82.5z"/>
	</g>
</g>
<g>
	<g>
		<path fill="#113E39" d="M87.1,80.8c0.6-4.3,6.9,2.6,7.4,3.3c1.4,1.9,2.3,4.1,3,6.3c0.9,3.2,1.5,6.2,4,8.6c1.7,1.6,5,0.1,4.2-2.4
			c-1.5-4.7-4.4-10.1-8.8-12.6c-3-1.8-8.5-2.7-10.9,0.6c-2.6,3.5,0,8.9,2.7,11.5c3.8,3.6,9.1,4,14,3.3c3.2-0.4,1.8-5.3-1.3-4.8
			c-2.6,0.4-5.5,0.3-7.9-1.1c-1.3-0.8-5.5-5.1-2.2-6.1c4.5-1.4,8.6,7.4,9.5,10.5c1.4-0.8,2.8-1.6,4.2-2.4c-2.5-2.3-2.6-6.4-3.8-9.4
			c-1.4-3.3-3.4-6.4-6.2-8.8c-3.8-3.2-11.8-4.4-12.8,2.2C81.9,82.6,86.7,84,87.1,80.8L87.1,80.8z"/>
	</g>
</g>
<g>
	<g>
		<path fill="#113E39" d="M122.3,80.7c-2.1-2.8-6.8-8.7-11-7.1c-4.2,1.6-4.1,9.4-3.5,12.9c2.3,13.1,15.2,14.5,25.9,10.4
			c3-1.1,1.7-6-1.3-4.8c-4.8,1.8-12.3,3.8-16.6-0.2c-3.6-3.4-4.6-10.6-1.7-14.7c-0.7,0.4-1.4,0.8-2.2,1.2c2.2-0.3,4.9,3.1,6.1,4.7
			C119.9,85.7,124.3,83.2,122.3,80.7L122.3,80.7z"/>
	</g>
</g>
<g>
	<g>
		<path fill="#113E39" d="M136.6,87c0.4-0.7,6.4-1.5,7.5-2.2c0.8-0.4,1.2-1.3,1.2-2.2c0-5.1-6.6-7.4-11-7.1c-4.9,0.3-6.1,4.7-5.5,9
			c1.7,11.2,17.2,17.3,26.9,12.4c2.9-1.5,0.3-5.8-2.5-4.3c-4.5,2.3-12.4,0.4-16-2.9c-1.7-1.5-3-3.6-3.4-5.9
			c-0.4-2.5,0.3-3.5,2.9-3.1c0.7,0.1,3.7,0.9,3.7,1.9c0.4-0.7,0.8-1.4,1.2-2.2c-3.1,1.8-7.3,0.7-9.3,4
			C130.6,87.3,134.9,89.8,136.6,87L136.6,87z"/>
	</g>
</g>
<g>
	<g>
		<path fill="#113E39" d="M148.9,80.1c2.2,6.1,6.5,14.9,14.6,13.5c8-1.4,4.2-10.4,1.1-14.6c-1.3,1-2.6,2-3.9,3c3.1,4,6.2,8,9.3,11.9
			c0.8,1,1.6,2,2.3,3c1.7,1.8,1.5,2.8-0.6,3c-1.2,0.9-3.9,0.9-5.4,1.1c-9.8,1.7-19.9,1.6-29.9,1.5c-9.3-0.1-18.6-0.3-27.8,0.8
			c-5.5,0.6-15.2,0.5-17.6,6.6c-1.2,3,3.7,4.3,4.8,1.3c0.6-1.4,5.8-1.9,7.1-2.1c3.1-0.6,6.2-1,9.4-1.2c5.2-0.4,10.5-0.5,15.8-0.5
			c10.5,0,21.1,0.5,31.6-0.6c5.1-0.5,17.6-0.4,19.1-6.8c0.7-3.2-2.2-5.9-4-8.2c-3.5-4.5-7-8.9-10.5-13.4c-1.7-2.2-5.6,0.7-3.9,3
			c1.4,1.9,5.5,8.5-0.1,6.7c-3.7-1.2-5.3-6.2-6.5-9.4C152.6,75.8,147.8,77.1,148.9,80.1L148.9,80.1z"/>
	</g>
</g>
</svg>
